REM DIRINDEX 1\2\5,1\2\6,1\2\7,1\2\8,1\3\9,1\3\10,1\3\11,1\4\12,1\4\13,1\4\14,1\4\15,1\4\16
REM DIRNAME cjc034,folder01,folder02,folder03,folder04,folder05,folder06,folder07,folder08,folder09,folder10,folder11,folder12,folder13,folder14,folder15
TITLE ""
FILE "1200_sec03_0674_0682.mp3" MP3
  TRACK 01 AUDIO
    TITLE "0:"
    INDEX 01 00:00:00
  TRACK 02 AUDIO
    TITLE "12:cjc034_06352"
    INDEX 01 00:00:19
  TRACK 03 AUDIO
    TITLE "0:"
    INDEX 01 00:01:40
  TRACK 04 AUDIO
    TITLE "13:cjc034_06353"
    INDEX 01 00:01:71
  TRACK 05 AUDIO
    TITLE "0:"
    INDEX 01 00:03:02
  TRACK 06 AUDIO
    TITLE "14:cjc034_06354"
    INDEX 01 00:03:33
  TRACK 07 AUDIO
    TITLE "0:"
    INDEX 01 00:04:52
  TRACK 08 AUDIO
    TITLE "15:cjc034_06355"
    INDEX 01 00:05:12
  TRACK 09 AUDIO
    TITLE "0:"
    INDEX 01 00:09:22
  TRACK 10 AUDIO
    TITLE "16:cjc034_06356"
    INDEX 01 00:10:55
  TRACK 11 AUDIO
    TITLE "0:"
    INDEX 01 00:15:40
  TRACK 12 AUDIO
    TITLE "12:cjc034_06357"
    INDEX 01 00:16:44
  TRACK 13 AUDIO
    TITLE "0:"
    INDEX 01 00:17:69
  TRACK 14 AUDIO
    TITLE "13:cjc034_06358"
    INDEX 01 00:18:25
  TRACK 15 AUDIO
    TITLE "0:"
    INDEX 01 00:21:02
  TRACK 16 AUDIO
    TITLE "14:cjc034_06359"
    INDEX 01 00:21:33
  TRACK 17 AUDIO
    TITLE "0:"
    INDEX 01 00:22:58
  TRACK 18 AUDIO
    TITLE "15:cjc034_06360"
    INDEX 01 00:23:14
  TRACK 19 AUDIO
    TITLE "0:"
    INDEX 01 00:26:56
  TRACK 20 AUDIO
    TITLE "12:cjc034_06361"
    INDEX 01 00:28:13
  TRACK 21 AUDIO
    TITLE "0:"
    INDEX 01 00:29:25
  TRACK 22 AUDIO
    TITLE "13:cjc034_06362"
    INDEX 01 00:29:56
  TRACK 23 AUDIO
    TITLE "0:"
    INDEX 01 00:31:55
  TRACK 24 AUDIO
    TITLE "14:cjc034_06363"
    INDEX 01 00:32:13
  TRACK 25 AUDIO
    TITLE "0:"
    INDEX 01 00:33:26
  TRACK 26 AUDIO
    TITLE "15:cjc034_06364"
    INDEX 01 00:33:58
  TRACK 27 AUDIO
    TITLE "0:"
    INDEX 01 00:38:08
  TRACK 28 AUDIO
    TITLE "12:cjc034_06365"
    INDEX 01 00:39:39
  TRACK 29 AUDIO
    TITLE "0:"
    INDEX 01 00:40:44
  TRACK 30 AUDIO
    TITLE "13:cjc034_06366"
    INDEX 01 00:41:06
  TRACK 31 AUDIO
    TITLE "0:"
    INDEX 01 00:44:16
  TRACK 32 AUDIO
    TITLE "14:cjc034_06367"
    INDEX 01 00:44:50
  TRACK 33 AUDIO
    TITLE "0:"
    INDEX 01 00:45:59
  TRACK 34 AUDIO
    TITLE "15:cjc034_06368"
    INDEX 01 00:46:19
  TRACK 35 AUDIO
    TITLE "0:"
    INDEX 01 00:49:43
  TRACK 36 AUDIO
    TITLE "12:cjc034_06369"
    INDEX 01 00:50:74
  TRACK 37 AUDIO
    TITLE "0:"
    INDEX 01 00:52:04
  TRACK 38 AUDIO
    TITLE "13:cjc034_06370"
    INDEX 01 00:52:41
  TRACK 39 AUDIO
    TITLE "0:"
    INDEX 01 00:53:31
  TRACK 40 AUDIO
    TITLE "14:cjc034_06371"
    INDEX 01 00:53:64
  TRACK 41 AUDIO
    TITLE "0:"
    INDEX 01 00:54:70
  TRACK 42 AUDIO
    TITLE "15:cjc034_06372"
    INDEX 01 00:55:30
  TRACK 43 AUDIO
    TITLE "0:"
    INDEX 01 00:59:04
  TRACK 44 AUDIO
    TITLE "12:cjc034_06373"
    INDEX 01 01:00:39
  TRACK 45 AUDIO
    TITLE "0:"
    INDEX 01 01:01:50
  TRACK 46 AUDIO
    TITLE "13:cjc034_06374"
    INDEX 01 01:02:08
  TRACK 47 AUDIO
    TITLE "0:"
    INDEX 01 01:04:64
  TRACK 48 AUDIO
    TITLE "14:cjc034_06375"
    INDEX 01 01:05:24
  TRACK 49 AUDIO
    TITLE "0:"
    INDEX 01 01:06:34
  TRACK 50 AUDIO
    TITLE "15:cjc034_06376"
    INDEX 01 01:06:69
  TRACK 51 AUDIO
    TITLE "0:"
    INDEX 01 01:10:04
  TRACK 52 AUDIO
    TITLE "12:cjc034_06377"
    INDEX 01 01:11:35
  TRACK 53 AUDIO
    TITLE "0:"
    INDEX 01 01:12:64
  TRACK 54 AUDIO
    TITLE "13:cjc034_06378"
    INDEX 01 01:13:22
  TRACK 55 AUDIO
    TITLE "0:"
    INDEX 01 01:14:35
  TRACK 56 AUDIO
    TITLE "14:cjc034_06379"
    INDEX 01 01:14:66
  TRACK 57 AUDIO
    TITLE "0:"
    INDEX 01 01:16:20
  TRACK 58 AUDIO
    TITLE "15:cjc034_06380"
    INDEX 01 01:16:54
  TRACK 59 AUDIO
    TITLE "0:"
    INDEX 01 01:20:34
  TRACK 60 AUDIO
    TITLE "12:cjc034_06381"
    INDEX 01 01:21:70
  TRACK 61 AUDIO
    TITLE "0:"
    INDEX 01 01:23:22
  TRACK 62 AUDIO
    TITLE "13:cjc034_06382"
    INDEX 01 01:23:54
  TRACK 63 AUDIO
    TITLE "0:"
    INDEX 01 01:24:73
  TRACK 64 AUDIO
    TITLE "14:cjc034_06383"
    INDEX 01 01:25:31
  TRACK 65 AUDIO
    TITLE "0:"
    INDEX 01 01:26:60
  TRACK 66 AUDIO
    TITLE "15:cjc034_06384"
    INDEX 01 01:27:16
  TRACK 67 AUDIO
    TITLE "0:"
    INDEX 01 01:32:64
  TRACK 68 AUDIO
    TITLE "12:cjc034_06385"
    INDEX 01 01:34:20
  TRACK 69 AUDIO
    TITLE "0:"
    INDEX 01 01:35:43
  TRACK 70 AUDIO
    TITLE "13:cjc034_06386"
    INDEX 01 01:36:00
  TRACK 71 AUDIO
    TITLE "0:"
    INDEX 01 01:40:01
  TRACK 72 AUDIO
    TITLE "14:cjc034_06387"
    INDEX 01 01:40:36
  TRACK 73 AUDIO
    TITLE "0:"
    INDEX 01 01:41:57
  TRACK 74 AUDIO
    TITLE "15:cjc034_06388"
    INDEX 01 01:42:16
  TRACK 75 AUDIO
    TITLE "0:"
    INDEX 01 01:46:19
